<?xml version="1.0" standalone="no"?>
<!DOCTYPE svg PUBLIC "-//W3C//DTD SVG 20010904//EN"
 "http://www.w3.org/TR/2001/REC-SVG-20010904/DTD/svg10.dtd">
<svg version="1.0" xmlns="http://www.w3.org/2000/svg"
 width="512.000000pt" height="512.000000pt" viewBox="0 0 512.000000 512.000000"
 preserveAspectRatio="xMidYMid meet">

<g transform="translate(0.000000,512.000000) scale(0.100000,-0.100000)"
fill="#000000" stroke="none">
<path d="M1941 4769 c-203 -30 -390 -167 -480 -351 -65 -133 -71 -169 -71
-448 0 -280 6 -314 72 -450 40 -82 52 -96 392 -438 l350 -352 93 92 93 92
-339 341 c-286 287 -343 349 -367 400 l-29 60 0 255 0 255 27 57 c56 121 174
209 304 228 90 13 1058 13 1148 0 130 -19 248 -107 304 -228 l27 -57 0 -255 0
-255 -29 -60 c-25 -53 -140 -171 -981 -1015 l-953 -955 -41 -85 c-66 -136 -71
-171 -71 -450 0 -280 6 -314 72 -450 77 -160 234 -287 418 -337 59 -16 120
-18 680 -18 688 0 669 -2 820 73 109 53 222 168 278 282 66 135 72 171 72 446
0 275 -11 339 -77 467 -33 64 -77 113 -387 425 l-350 352 -93 -92 -93 -92 339
-341 c286 -287 343 -349 367 -400 l29 -60 0 -255 0 -255 -27 -57 c-56 -121
-176 -209 -309 -228 -86 -13 -1056 -12 -1143 0 -130 19 -248 107 -304 228
l-27 57 0 255 c0 248 1 257 24 310 21 49 137 168 981 1015 l958 960 41 85 c66
136 71 171 71 450 0 282 -8 328 -72 454 -57 111 -173 227 -278 278 -150 74
-128 72 -785 74 -330 1 -618 -2 -654 -7z"/>
</g>
</svg>
